NDIME= 3
NELEM= 0
NPOIN= 0
NMARK= 2
MARKER_TAG= farfield
MARKER_ELEMS= 266
9 -1 -1 -1 -1 
9 -1 -1 -1 -1 
9 -1 -1 -1 -1 
9 -1 -1 -1 -1 
9 -1 -1 -1 -1 
9 -1 -1 -1 -1 
9 -1 -1 -1 -1 
9 -1 -1 -1 -1 
9 -1 -1 -1 -1 
9 -1 -1 -1 -1 
9 -1 -1 -1 -1 
9 -1 -1 -1 -1 
9 -1 -1 -1 -1 
9 -1 -1 -1 -1 
9 -1 -1 -1 -1 
9 -1 -1 -1 -1 
9 -1 -1 -1 -1 
9 -1 -1 -1 -1 
9 -1 -1 -1 -1 
9 -1 -1 -1 -1 
9 -1 -1 -1 -1 
9 -1 -1 -1 -1 
9 -1 -1 -1 -1 
9 -1 -1 -1 -1 
9 -1 -1 -1 -1 
9 -1 -1 -1 -1 
9 -1 -1 -1 -1 
9 -1 -1 -1 -1 
9 -1 -1 -1 -1 
9 -1 -1 -1 -1 
9 -1 -1 -1 -1 
9 -1 -1 -1 -1 
9 -1 -1 -1 -1 
9 -1 -1 -1 -1 
9 -1 -1 -1 -1 
9 -1 -1 -1 -1 
9 -1 -1 -1 -1 
9 -1 -1 -1 -1 
9 -1 -1 -1 -1 
9 -1 -1 -1 -1 
9 -1 -1 -1 -1 
9 -1 -1 -1 -1 
9 -1 -1 -1 -1 
9 -1 -1 -1 -1 
9 -1 -1 -1 -1 
9 -1 -1 -1 -1 
9 -1 -1 -1 -1 
9 -1 -1 -1 -1 
9 -1 -1 -1 -1 
9 -1 -1 -1 -1 
9 -1 -1 -1 -1 
9 -1 -1 -1 -1 
9 -1 -1 -1 -1 
9 -1 -1 -1 -1 
9 -1 -1 -1 -1 
9 -1 -1 -1 -1 
9 -1 -1 -1 -1 
9 -1 -1 -1 -1 
9 -1 -1 -1 -1 
9 -1 -1 -1 -1 
9 -1 -1 -1 -1 
9 -1 -1 -1 -1 
9 -1 -1 -1 -1 
9 -1 -1 -1 -1 
9 -1 -1 -1 -1 
9 -1 -1 -1 -1 
9 -1 -1 -1 -1 
9 -1 -1 -1 -1 
9 -1 -1 -1 -1 
9 -1 -1 -1 -1 
9 -1 -1 -1 -1 
9 -1 -1 -1 -1 
9 -1 -1 -1 -1 
9 -1 -1 -1 -1 
9 -1 -1 -1 -1 
9 -1 -1 -1 -1 
9 -1 -1 -1 -1 
9 -1 -1 -1 -1 
9 -1 -1 -1 -1 
9 -1 -1 -1 -1 
9 -1 -1 -1 -1 
9 -1 -1 -1 -1 
9 -1 -1 -1 -1 
9 -1 -1 -1 -1 
9 -1 -1 -1 -1 
9 -1 -1 -1 -1 
9 -1 -1 -1 -1 
9 -1 -1 -1 -1 
9 -1 -1 -1 -1 
9 -1 -1 -1 -1 
9 -1 -1 -1 -1 
9 -1 -1 -1 -1 
9 -1 -1 -1 -1 
9 -1 -1 -1 -1 
9 -1 -1 -1 -1 
9 -1 -1 -1 -1 
9 -1 -1 -1 -1 
9 -1 -1 -1 -1 
9 -1 -1 -1 -1 
9 -1 -1 -1 -1 
9 -1 -1 -1 -1 
9 -1 -1 -1 -1 
9 -1 -1 -1 -1 
9 -1 -1 -1 -1 
9 -1 -1 -1 -1 
9 -1 -1 -1 -1 
9 -1 -1 -1 -1 
9 -1 -1 -1 -1 
9 -1 -1 -1 -1 
9 -1 -1 -1 -1 
9 -1 -1 -1 -1 
9 -1 -1 -1 -1 
9 -1 -1 -1 -1 
9 -1 -1 -1 -1 
9 -1 -1 -1 -1 
9 -1 -1 -1 -1 
9 -1 -1 -1 -1 
9 -1 -1 -1 -1 
9 -1 -1 -1 -1 
9 -1 -1 -1 -1 
9 -1 -1 -1 -1 
9 -1 -1 -1 -1 
9 -1 -1 -1 -1 
9 -1 -1 -1 -1 
9 -1 -1 -1 -1 
9 -1 -1 -1 -1 
9 -1 -1 -1 -1 
9 -1 -1 -1 -1 
9 -1 -1 -1 -1 
9 -1 -1 -1 -1 
9 -1 -1 -1 -1 
9 -1 -1 -1 -1 
9 -1 -1 -1 -1 
9 -1 -1 -1 -1 
9 -1 -1 -1 -1 
9 -1 -1 -1 -1 
9 -1 -1 -1 -1 
9 -1 -1 -1 -1 
9 -1 -1 -1 -1 
9 -1 -1 -1 -1 
9 -1 -1 -1 -1 
9 -1 -1 -1 -1 
9 -1 -1 -1 -1 
9 -1 -1 -1 -1 
9 -1 -1 -1 -1 
9 -1 -1 -1 -1 
9 -1 -1 -1 -1 
9 -1 -1 -1 -1 
9 -1 -1 -1 -1 
9 -1 -1 -1 -1 
9 -1 -1 -1 -1 
9 -1 -1 -1 -1 
9 -1 -1 -1 -1 
9 -1 -1 -1 -1 
9 -1 -1 -1 -1 
9 -1 -1 -1 -1 
9 -1 -1 -1 -1 
9 -1 -1 -1 -1 
9 -1 -1 -1 -1 
9 -1 -1 -1 -1 
9 -1 -1 -1 -1 
9 -1 -1 -1 -1 
9 -1 -1 -1 -1 
9 -1 -1 -1 -1 
9 -1 -1 -1 -1 
9 -1 -1 -1 -1 
9 -1 -1 -1 -1 
9 -1 -1 -1 -1 
9 -1 -1 -1 -1 
9 -1 -1 -1 -1 
9 -1 -1 -1 -1 
9 -1 -1 -1 -1 
9 -1 -1 -1 -1 
9 -1 -1 -1 -1 
9 -1 -1 -1 -1 
9 -1 -1 -1 -1 
9 -1 -1 -1 -1 
9 -1 -1 -1 -1 
9 -1 -1 -1 -1 
9 -1 -1 -1 -1 
9 -1 -1 -1 -1 
9 -1 -1 -1 -1 
9 -1 -1 -1 -1 
9 -1 -1 -1 -1 
9 -1 -1 -1 -1 
9 -1 -1 -1 -1 
9 -1 -1 -1 -1 
9 -1 -1 -1 -1 
9 -1 -1 -1 -1 
9 -1 -1 -1 -1 
9 -1 -1 -1 -1 
9 -1 -1 -1 -1 
9 -1 -1 -1 -1 
9 -1 -1 -1 -1 
9 -1 -1 -1 -1 
9 -1 -1 -1 -1 
9 -1 -1 -1 -1 
9 -1 -1 -1 -1 
9 -1 -1 -1 -1 
9 -1 -1 -1 -1 
9 -1 -1 -1 -1 
9 -1 -1 -1 -1 
9 -1 -1 -1 -1 
9 -1 -1 -1 -1 
9 -1 -1 -1 -1 
9 -1 -1 -1 -1 
9 -1 -1 -1 -1 
9 -1 -1 -1 -1 
9 -1 -1 -1 -1 
9 -1 -1 -1 -1 
9 -1 -1 -1 -1 
9 -1 -1 -1 -1 
9 -1 -1 -1 -1 
9 -1 -1 -1 -1 
9 -1 -1 -1 -1 
9 -1 -1 -1 -1 
9 -1 -1 -1 -1 
9 -1 -1 -1 -1 
9 -1 -1 -1 -1 
9 -1 -1 -1 -1 
9 -1 -1 -1 -1 
9 -1 -1 -1 -1 
9 -1 -1 -1 -1 
9 -1 -1 -1 -1 
9 -1 -1 -1 -1 
9 -1 -1 -1 -1 
9 -1 -1 -1 -1 
9 -1 -1 -1 -1 
9 -1 -1 -1 -1 
9 -1 -1 -1 -1 
9 -1 -1 -1 -1 
9 -1 -1 -1 -1 
9 -1 -1 -1 -1 
9 -1 -1 -1 -1 
9 -1 -1 -1 -1 
9 -1 -1 -1 -1 
9 -1 -1 -1 -1 
9 -1 -1 -1 -1 
9 -1 -1 -1 -1 
9 -1 -1 -1 -1 
9 -1 -1 -1 -1 
9 -1 -1 -1 -1 
9 -1 -1 -1 -1 
9 -1 -1 -1 -1 
9 -1 -1 -1 -1 
9 -1 -1 -1 -1 
9 -1 -1 -1 -1 
9 -1 -1 -1 -1 
9 -1 -1 -1 -1 
9 -1 -1 -1 -1 
9 -1 -1 -1 -1 
9 -1 -1 -1 -1 
9 -1 -1 -1 -1 
9 -1 -1 -1 -1 
9 -1 -1 -1 -1 
9 -1 -1 -1 -1 
9 -1 -1 -1 -1 
9 -1 -1 -1 -1 
9 -1 -1 -1 -1 
9 -1 -1 -1 -1 
9 -1 -1 -1 -1 
9 -1 -1 -1 -1 
9 -1 -1 -1 -1 
9 -1 -1 -1 -1 
9 -1 -1 -1 -1 
9 -1 -1 -1 -1 
MARKER_TAG= airfoil
MARKER_ELEMS= 206
9 -1 -1 -1 -1 
9 -1 -1 -1 -1 
9 -1 -1 -1 -1 
9 -1 -1 -1 -1 
9 -1 -1 -1 -1 
9 -1 -1 -1 -1 
9 -1 -1 -1 -1 
9 -1 -1 -1 -1 
9 -1 -1 -1 -1 
9 -1 -1 -1 -1 
9 -1 -1 -1 -1 
9 -1 -1 -1 -1 
9 -1 -1 -1 -1 
9 -1 -1 -1 -1 
9 -1 -1 -1 -1 
9 -1 -1 -1 -1 
9 -1 -1 -1 -1 
9 -1 -1 -1 -1 
9 -1 -1 -1 -1 
9 -1 -1 -1 -1 
9 -1 -1 -1 -1 
9 -1 -1 -1 -1 
9 -1 -1 -1 -1 
9 -1 -1 -1 -1 
9 -1 -1 -1 -1 
9 -1 -1 -1 -1 
9 -1 -1 -1 -1 
9 -1 -1 -1 -1 
9 -1 -1 -1 -1 
9 -1 -1 -1 -1 
9 -1 -1 -1 -1 
9 -1 -1 -1 -1 
9 -1 -1 -1 -1 
9 -1 -1 -1 -1 
9 -1 -1 -1 -1 
9 -1 -1 -1 -1 
9 -1 -1 -1 -1 
9 -1 -1 -1 -1 
9 -1 -1 -1 -1 
9 -1 -1 -1 -1 
9 -1 -1 -1 -1 
9 -1 -1 -1 -1 
9 -1 -1 -1 -1 
9 -1 -1 -1 -1 
9 -1 -1 -1 -1 
9 -1 -1 -1 -1 
9 -1 -1 -1 -1 
9 -1 -1 -1 -1 
9 -1 -1 -1 -1 
9 -1 -1 -1 -1 
9 -1 -1 -1 -1 
9 -1 -1 -1 -1 
9 -1 -1 -1 -1 
9 -1 -1 -1 -1 
9 -1 -1 -1 -1 
9 -1 -1 -1 -1 
9 -1 -1 -1 -1 
9 -1 -1 -1 -1 
9 -1 -1 -1 -1 
9 -1 -1 -1 -1 
9 -1 -1 -1 -1 
9 -1 -1 -1 -1 
9 -1 -1 -1 -1 
9 -1 -1 -1 -1 
9 -1 -1 -1 -1 
9 -1 -1 -1 -1 
9 -1 -1 -1 -1 
9 -1 -1 -1 -1 
9 -1 -1 -1 -1 
9 -1 -1 -1 -1 
9 -1 -1 -1 -1 
9 -1 -1 -1 -1 
9 -1 -1 -1 -1 
9 -1 -1 -1 -1 
9 -1 -1 -1 -1 
9 -1 -1 -1 -1 
9 -1 -1 -1 -1 
9 -1 -1 -1 -1 
9 -1 -1 -1 -1 
9 -1 -1 -1 -1 
9 -1 -1 -1 -1 
9 -1 -1 -1 -1 
9 -1 -1 -1 -1 
9 -1 -1 -1 -1 
9 -1 -1 -1 -1 
9 -1 -1 -1 -1 
9 -1 -1 -1 -1 
9 -1 -1 -1 -1 
9 -1 -1 -1 -1 
9 -1 -1 -1 -1 
9 -1 -1 -1 -1 
9 -1 -1 -1 -1 
9 -1 -1 -1 -1 
9 -1 -1 -1 -1 
9 -1 -1 -1 -1 
9 -1 -1 -1 -1 
9 -1 -1 -1 -1 
9 -1 -1 -1 -1 
9 -1 -1 -1 -1 
9 -1 -1 -1 -1 
9 -1 -1 -1 -1 
9 -1 -1 -1 -1 
9 -1 -1 -1 -1 
9 -1 -1 -1 -1 
9 -1 -1 -1 -1 
9 -1 -1 -1 -1 
9 -1 -1 -1 -1 
9 -1 -1 -1 -1 
9 -1 -1 -1 -1 
9 -1 -1 -1 -1 
9 -1 -1 -1 -1 
9 -1 -1 -1 -1 
9 -1 -1 -1 -1 
9 -1 -1 -1 -1 
9 -1 -1 -1 -1 
9 -1 -1 -1 -1 
9 -1 -1 -1 -1 
9 -1 -1 -1 -1 
9 -1 -1 -1 -1 
9 -1 -1 -1 -1 
9 -1 -1 -1 -1 
9 -1 -1 -1 -1 
9 -1 -1 -1 -1 
9 -1 -1 -1 -1 
9 -1 -1 -1 -1 
9 -1 -1 -1 -1 
9 -1 -1 -1 -1 
9 -1 -1 -1 -1 
9 -1 -1 -1 -1 
9 -1 -1 -1 -1 
9 -1 -1 -1 -1 
9 -1 -1 -1 -1 
9 -1 -1 -1 -1 
9 -1 -1 -1 -1 
9 -1 -1 -1 -1 
9 -1 -1 -1 -1 
9 -1 -1 -1 -1 
9 -1 -1 -1 -1 
9 -1 -1 -1 -1 
9 -1 -1 -1 -1 
9 -1 -1 -1 -1 
9 -1 -1 -1 -1 
9 -1 -1 -1 -1 
9 -1 -1 -1 -1 
9 -1 -1 -1 -1 
9 -1 -1 -1 -1 
9 -1 -1 -1 -1 
9 -1 -1 -1 -1 
9 -1 -1 -1 -1 
9 -1 -1 -1 -1 
9 -1 -1 -1 -1 
9 -1 -1 -1 -1 
9 -1 -1 -1 -1 
9 -1 -1 -1 -1 
9 -1 -1 -1 -1 
9 -1 -1 -1 -1 
9 -1 -1 -1 -1 
9 -1 -1 -1 -1 
9 -1 -1 -1 -1 
9 -1 -1 -1 -1 
9 -1 -1 -1 -1 
9 -1 -1 -1 -1 
9 -1 -1 -1 -1 
9 -1 -1 -1 -1 
9 -1 -1 -1 -1 
9 -1 -1 -1 -1 
9 -1 -1 -1 -1 
9 -1 -1 -1 -1 
9 -1 -1 -1 -1 
9 -1 -1 -1 -1 
9 -1 -1 -1 -1 
9 -1 -1 -1 -1 
9 -1 -1 -1 -1 
9 -1 -1 -1 -1 
9 -1 -1 -1 -1 
9 -1 -1 -1 -1 
9 -1 -1 -1 -1 
9 -1 -1 -1 -1 
9 -1 -1 -1 -1 
9 -1 -1 -1 -1 
9 -1 -1 -1 -1 
9 -1 -1 -1 -1 
9 -1 -1 -1 -1 
9 -1 -1 -1 -1 
9 -1 -1 -1 -1 
9 -1 -1 -1 -1 
9 -1 -1 -1 -1 
9 -1 -1 -1 -1 
9 -1 -1 -1 -1 
9 -1 -1 -1 -1 
9 -1 -1 -1 -1 
9 -1 -1 -1 -1 
9 -1 -1 -1 -1 
9 -1 -1 -1 -1 
9 -1 -1 -1 -1 
9 -1 -1 -1 -1 
9 -1 -1 -1 -1 
9 -1 -1 -1 -1 
9 -1 -1 -1 -1 
9 -1 -1 -1 -1 
9 -1 -1 -1 -1 
9 -1 -1 -1 -1 
9 -1 -1 -1 -1 
9 -1 -1 -1 -1 
9 -1 -1 -1 -1 
9 -1 -1 -1 -1 
